<svg
  version="1.1"
  id="_x31_0"
  xmlns="http://www.w3.org/2000/svg"
  x="0px"
  y="0px"
  viewBox="0 0 512 512"
  fill="currentColor"
>
  <g>
    <path
      d="M506.062,355.146c-6.195-18.418-16.699-51.984-18.762-63.43c-2.324-12.653-6.453-22.809-10.07-31.758
		c-2.668-6.458-4.906-12.051-5.938-17.297c-4.218-22.294-33.91-93.817-42.687-114.383c-3.188-19.453-14.118-34.254-16.438-37.266
		l-4.82-6.11l-6.973-3.531c-9.383-4.648-25.219-12.738-33.738-17.386c-6.797-6.454-14.547-11.184-21.258-14.543
		c-0.43-0.863-0.774-1.809-1.203-2.668C332.469,6.412,275.32,6.412,255.957,6.412c-19.277,0-76.426,0-88.214,40.363
		c-0.344,0.859-0.778,1.805-1.122,2.668c-6.797,3.359-14.457,8.09-21.343,14.543c-8.434,4.648-24.356,12.738-33.738,17.386
		l-6.883,3.531l-4.82,6.11c-2.41,3.012-13.254,17.813-16.438,37.266c-8.782,20.566-38.473,92.09-42.774,114.465
		c-0.949,5.164-3.183,10.758-5.855,17.215c-3.614,8.949-7.742,19.105-10.066,31.758c-2.07,11.446-12.653,45.012-18.766,63.43
		L0,373.049l11.875,14.629c13.945,17.301,43.378,27.543,78.84,27.543c2.457,0,5.011-0.129,7.542-0.223
		c1.317-0.015,2.626-0.031,3.942-0.035l-0.054-0.082c0.066-0.004,0.125,0,0.187-0.004l-4.562-7.058
		c-3.012-4.649-4.043-10.5-2.754-16.008c0.824-3.652,2.675-6.938,5.222-9.57c0.641-0.61,1.289-1.211,2.019-1.718
		c-0.066,0.007-0.125,0.004-0.191,0.007c0.062-0.05,0.114-0.117,0.18-0.164c-4.047,0.344-7.832,0.43-11.531,0.43
		c-29.008,0-46.993-8.434-52.07-14.801c0,0,16.609-49.922,19.878-67.997c3.356-18.16,12.653-31.414,15.922-48.797
		c3.359-17.386,33.652-91.918,42.515-111.886c0.778-13.254,9.985-25.129,9.985-25.129s29.605-14.805,39.59-20.742
		c9.211-10.672,26.164-15.492,26.164-15.492s4.39-10.758,7.746-17.73c2.582-15.149,35.542-17.383,55.511-17.383
		s53.016,2.234,55.598,17.383c3.356,6.973,7.746,17.73,7.746,17.73s16.957,4.82,26.164,15.492
		c9.985,5.938,39.59,20.742,39.59,20.742s9.211,11.875,9.985,25.129c8.863,19.969,39.16,94.5,42.515,111.886
		c3.27,17.383,12.566,30.637,15.836,48.797c3.356,18.074,19.969,67.997,19.969,67.997c-5.082,6.367-23.152,14.801-52.07,14.801
		c-3.808,0-7.898-0.176-12.137-0.516c-0.773-0.09-1.59-0.125-2.347-0.238c0.012,0.023,0.012,0.051,0.023,0.074
		c-0.058-0.008-0.113-0.008-0.172-0.012c0.258,0.606,0.434,1.207,0.606,1.894c1.375,5.512,0.512,11.446-2.496,16.18l-14.289,22.809
		c-3.871,6.109-10.5,9.812-17.726,9.812c-2.047,0-4.02-0.394-5.958-0.957c-0.457-0.168-0.922-0.246-1.378-0.457l0.019,0.082
		c-0.058-0.019-0.117-0.027-0.176-0.046c3.274,14.976,6.801,30.465,5.684,33.05c-1.809,4.473-56.199,8.172-73.157,8.52
		c-5.679,0.172-12.222,0.172-18.418,0.172c-12.394,0-23.41-0.172-23.41-0.172s-11.015,0.172-23.324,0.172
		c-6.195,0-12.734,0-18.414-0.172c-17.042-0.348-71.347-4.047-73.246-8.52c-0.774-1.832,0.882-10.5,3.113-20.843
		c0.508-2.211,1.043-4.497,1.622-6.91l-0.133,0.086c0.015-0.074,0.031-0.144,0.046-0.218c-1.374,0.863-2.839,1.809-4.214,2.668
		c-3.356,2.152-7.23,3.27-11.191,3.27c-7.141,0-13.684-3.614-17.555-9.551l-0.621-0.957l-0.344-0.734
		c-0.012,0.058-0.019,0.102-0.031,0.156l-0.125-0.187c-5.418,24.617-7.145,34.683-2.324,46.477
		c9.21,22.031,31.332,24.098,59.472,26.847c16.699,1.555,35.547,2.672,44.754,2.844c5.938,0.172,12.738,0.172,19.191,0.172
		c11.019,0,21-0.086,23.324-0.172c2.41,0.086,12.394,0.172,23.41,0.172c6.453,0,13.254,0,19.106-0.172
		c9.297-0.172,28.144-1.289,44.844-2.844c28.054-2.75,50.258-4.816,59.468-26.847c5.165-12.481,2.84-23.066-3.359-51.211
		c-0.602-2.722-1.332-6.043-2.027-9.371c-0.078-0.469-0.172-0.91-0.246-1.382c8.157,0.941,16.321,1.461,24.137,1.461
		c35.371,0,64.891-10.242,78.832-27.543L512,373.049L506.062,355.146z"
    ></path>
    <path
      d="M122.125,348.26c0.606,6.629-1.976,14.546-5.851,23.328c9.312-5.66,19-11.614,28.031-17.059
		c0.278-0.156,0.57-0.339,0.847-0.496c-0.003-0.004-0.007-0.007-0.011-0.011c0.046-0.027,0.094-0.055,0.137-0.082
		c-0.774-1.031-1.461-1.977-2.062-3.098c-1.723-3.098-2.586-6.625-2.586-10.156c0-10.07,0.516-25.902,0.602-26.332
		c0.262-7.922,5.082-14.977,12.398-18.164c1.89-0.86,3.871-1.375,5.938-1.633c2.152-14.29,4.73-38.473,2.578-47.426
		c-2.508-10.773,4.191-16.89,6.16-18.426c0.246-0.168,0.438-0.274,0.484-0.274c-0.007-0.003-0.066-0.031-0.078-0.038
		c0.035-0.028,0.148-0.106,0.148-0.106s-6.461-2.578-11.039-11.133c-0.984-1.914-1.898-4.02-2.574-6.562
		c0,0-0.043,0.191-0.055,0.238c-0.031-0.098-0.07-0.175-0.102-0.273c0,0-4.133,19.195-12.218,28.832
		c8.859,26.941-0.778,71.175-8.523,81.847C126.602,331.994,121.438,339.74,122.125,348.26z"
    ></path>
    <path
      d="M349.77,247.13c-2.066,8.696,0.43,31.934,2.496,46.309c2.926,0.082,6.023,0.774,8.691,2.062
		c6.539,3.184,11.016,9.723,11.707,17.039c1.289,16.352,0,30.211-0.09,30.813c-0.344,3.531-1.633,6.89-3.527,9.812
		c10.07,5.512,19.019,10.586,24.613,13.774c-2.668-6.973-4.301-13.254-3.871-18.679c0.774-8.52-4.39-16.266-12.137-27.024
		c-7.832-10.672-17.386-54.906-8.519-81.847c-6.484-7.645-10.328-21.153-11.656-26.477c-0.262-1.183-0.438-2.094-0.422-2.274
		c-0.023,0.078-0.054,0.133-0.078,0.211c-0.016-0.07-0.066-0.293-0.066-0.293c-3.454,11.992-11.02,16.406-13.157,17.445
		c-0.226,0.09-0.434,0.161-0.492,0.161c-0.008,0-0.015,0-0.019,0c0.008,0.003,0.058,0.042,0.07,0.05
		c-0.047,0.019-0.172,0.074-0.172,0.074S352.782,234.568,349.77,247.13z"
    ></path>
    <path
      d="M266.715,141.619c10.414-18.246,26.25-45.442,36.922-60.934c1.55-2.238,1.379-5.422-0.516-7.313
		c-13.082-12.742-33.304-15.668-47.164-15.668c-13.855,0-34.082,2.926-47.078,15.668c-1.977,1.89-2.062,5.074-0.516,7.313
		c10.672,15.492,26.508,42.687,36.922,60.934C250.019,149.97,261.981,149.97,266.715,141.619z"
    ></path>
    <path
      d="M111.711,395.771c-0.172,0.946,0,1.891,0.519,2.754l14.886,23.066c0.692,1.117,1.895,1.718,3.098,1.718
		c0.605,0,1.293-0.176,1.894-0.602c5.766-3.614,11.965-7.574,18.418-11.707c31.414-19.878,67.734-42.602,75.566-46.82
		c3.012,1.379,9.469,3.183,24.871,7.316c3.274,0.95,6.367,1.379,9.211,1.379c10.843,0,16.094-6.371,20.308-11.707l54.309,31.157
		l18.934-25.305l1.379-1.891c-0.606-0.343-1.293-0.687-1.981-1.121c-6.48-3.558-13.175-7.187-19.656-10.68
		c-2.218-1.246-4.508-2.503-6.614-3.718c9.118-0.449,17.535-2.394,22.227-3.762c2.324-0.602,3.699-1.031,3.957-1.118
		c1.289-0.434,2.324-1.633,2.41-3.098c0.086-0.515,1.202-12.91,0-27.625c-0.086-1.297-0.864-2.496-2.066-3.015
		c-0.43-0.258-1.032-0.344-1.551-0.344h-0.254c-0.606,0.086-1.207,0.258-1.723,0.602c-12.222,8.008-42.43,8.867-54.824,8.867h-2.465
		l-1.152-0.078v-0.008c0-1.554-0.946-2.843-2.406-3.445l-26.078-9.723c-0.43-0.09-0.863-0.171-1.293-0.171
		c-1.118,0-2.153,0.515-2.84,1.374l-3.442,4.391l-1.293-0.602c-0.515-0.176-1.031-0.344-1.546-0.344c-0.86,0-1.719,0.344-2.41,0.946
		c0,0-2.84,2.496-10.156,6.71c-3.512,0.23-6.867,0.367-10.219,0.5c-2.05,0.082-4.09,0.157-6.129,0.207
		c-3.226,0.078-6.453,0.156-9.473,0.156c-40.191,0-49.57-7.492-49.66-7.574c-0.687-0.52-1.547-0.864-2.406-0.864
		c-0.258,0-0.434,0-0.691,0.086c-0.258,0-0.516,0.086-0.774,0.176c-1.203,0.602-2.152,1.808-2.152,3.179
		c0,0.176-0.602,15.668-0.602,25.649c0,0.606,0.086,1.207,0.43,1.809c0.949,1.636,2.496,3.101,4.39,4.301
		c3.95,2.468,9.488,3.98,14.684,4.98c1.066,0.238,2.098,0.481,3.246,0.703c-5.582,3.438-13.351,8.301-22.148,13.598
		c-14.458,8.778-31.414,19.106-45.012,27.367C112.574,393.962,111.973,394.736,111.711,395.771z"
    ></path>
    <path
      d="M360.785,407.213l10.157,5.855c0.602,0.344,1.203,0.516,1.809,0.516c1.289,0,2.406-0.602,3.094-1.722
		l14.289-22.805c0.519-0.863,0.687-1.809,0.43-2.844c-0.172-0.946-0.859-1.718-1.722-2.234c-1.031-0.606-12.047-6.801-26.078-14.633
		l-6.711,8.953l-12.195,16.234l-1.492,1.954l0.016,0.011l-0.098,0.13L360.785,407.213z"
    ></path>
  </g>
</svg>
