<svg
  version="1.1"
  id="_x31_0"
  xmlns="http://www.w3.org/2000/svg"
  x="0px"
  y="0px"
  viewBox="0 0 512 512"
  fill="currentColor"
>
  <g>
    <path
      d="M32.43,380.73c14.93,26.809,34.488,50.488,57.954,70.469c23.398,19.84,49.777,35.199,78.507,45.582
    C196.766,506.879,226.133,512,256.07,512c30.438,0,60.234-5.262,88.535-15.715c28.16-10.382,54.117-25.602,77.086-45.086
    c23.891-20.266,43.59-44.442,58.664-71.75l3.559-6.399v-0.214c17.347-33.848,27.019-71.61,28.015-109.726
    c0.07-2.274,0.07-4.692,0.07-7.11c0-29.297-4.906-58.098-14.649-85.477c-9.812-27.73-24.25-53.402-42.949-76.301
    C424.25,57.246,384.5,29.512,339.629,14.008C312.82,4.695,284.73,0,256.07,0c-28.656,0-56.817,4.695-83.625,14.008
    C127.504,29.512,87.824,57.246,57.672,94.222c-18.703,22.898-33.137,48.57-43.023,76.301C4.981,197.902,0,226.703,0,256
    c0,2.418,0.07,4.836,0.145,7.183C1.282,304.215,12.375,344.89,32.43,380.73z M37.762,191.512v-0.008h0.07l-0.027,0.023
    L37.762,191.512z M483.484,262.328c-0.996,37.406-11.019,72.606-28.015,103.398l-3.554-6.969l-99.133,15.715l-38.258-38.258
    l32.856-100.906l44.301-18.633l84.98,51.554L483.484,262.328z M334.722,469.617c-24.465,9.032-50.988,13.938-78.652,13.938
    c-27.234,0-53.332-4.762-77.508-13.511l-14.438-91.305l37.406-37.406h109.012l38.402,38.473L334.722,469.617z M411.875,113.922
    l-22.754,96.782l-45.582,19.199l-84.266-61.297v-40.465l80.426-58.454l-9.316-28.797c40.32,13.938,75.519,38.898,101.972,71.325
    L411.875,113.922z M209.637,296.817l-16.07-49.348l-2.633-8.18l-0.211-0.71l60.442-43.875l1.637,1.207l6.473,4.695l27.023,19.625
    L209.637,296.817z M172.375,69.687l80.426,58.454v40.465l-84.266,61.297l-45.582-19.199l-22.758-96.782l-20.477-1.706
    C92.946,96,108.375,81.637,125.512,69.617c17.137-12.015,36.054-21.758,56.179-28.726L172.375,69.687z M197.547,336.215
    l-38.114,38.113l-98.062-15.57l-4.125,8.106c-17.352-31.074-27.664-66.703-28.661-104.535l6.829,5.902l84.976-51.554l44.305,18.633
    L197.547,336.215z M369.473,453.274L369.473,453.274c0.008-0.004,0.015-0.008,0.023-0.012
    C369.488,453.266,369.481,453.27,369.473,453.274z"
    ></path>
  </g>
</svg>
