<svg
  version="1.1"
  id="_x31_0"
  xmlns="http://www.w3.org/2000/svg"
  x="0px"
  y="0px"
  viewBox="0 0 512 512"
  fill="currentColor"
>
  <g>
    <path
      d="M256,0C114.84,0,0,114.84,0,256s114.84,256,256,256c141.156,0,256-114.84,256-256S397.156,0,256,0z
		 M77.809,386.371c-2.055-2.801-3.961-5.715-5.883-8.614c-0.961-1.457-1.992-2.867-2.922-4.343
		c-1.625-2.582-3.106-5.266-4.629-7.918c-1.055-1.847-2.18-3.652-3.184-5.527c-1.515-2.832-2.874-5.754-4.27-8.656
		c-0.836-1.738-1.742-3.442-2.535-5.207c-1.73-3.871-3.304-7.824-4.816-11.809c-0.309-0.816-0.676-1.61-0.981-2.434
		c-7.175-19.613-11.656-40.531-12.976-62.305l1.285-1.336c22.535-23.445,59.519-37.918,99.363-39.179l-1.336,5.301
		c-13.71,54.438-3.109,129.527,25.18,196.328c4.359,10.402,9.121,20.625,14.328,30.539c-37.965-15.106-70.695-40.469-94.894-72.614
		C78.977,387.848,78.363,387.129,77.809,386.371z M456.172,177.617c-29.254,81.13-98.707,161.61-161.551,187.215l-7.281,2.961
		c-0.313-0.508-0.641-1-0.95-1.511c-19.488-32.61-27.258-69.473-21.714-100.36c36.039-12.847,69.843-42.945,91.691-82.129
		c19.82-35.562,28.066-75.594,23.418-110.691c34.883,23.656,62.633,57.027,79.375,96.23L456.172,177.617z M336.523,160.637
		c-1.48,3.05-2.926,6.11-4.602,9.102c-49.484-46.133-140.199-76.043-223.273-74.098c-1.438-0.004-2.875-0.012-4.332-0.055
		C143.883,58.156,197.238,35.164,256,35.164c32.371,0,63.09,7.023,90.789,19.539l2.062,7.129
		C357.313,91.058,352.574,127.313,336.523,160.637z M155.383,239.496l2.488-9.875c30.906,2.738,59.098,13.715,79.09,30.626
		c-6.898,37.633,2.266,81.953,25.286,120.469c18.293,30.617,44.015,55.21,72.113,69.941c4.359,2.321,8.766,4.446,13.226,6.282
		C319.676,469.68,288.68,476.84,256,476.84c-17.778,0-35.043-2.16-51.606-6.125C160.574,399.699,139.547,302.367,155.383,239.496z
		 M381.558,437.637l-9.942-2.446c-23.847-5.886-47.366-21.515-66.531-43.367c-1.797-2.07-3.602-4.125-5.324-6.312l2.821-1.149
		c64.742-26.371,133.027-102.062,167.246-183.746c4.57,17.7,7.008,36.258,7.008,55.383
		C476.836,331.309,439.11,397.778,381.558,437.637z M85.141,116.293l0.098,1.422v0.007l0,0l0.012,0.161l10.527-0.727
		c81.672-5.668,177.926,24.715,224.668,70.676c-17.676,24.348-40.614,42.695-64.566,51.367
		c-29.137-24.863-72.145-39.141-117.114-38.457c-31.84,0.48-62.426,8.546-87.707,22.32c-5.023,2.707-9.926,5.566-14.546,8.726
		c3.882-35.613,16.328-68.598,35.09-97.066C75.809,128.398,80.246,122.203,85.141,116.293z"
    ></path>
  </g>
</svg>
