<?xml version="1.0" encoding="UTF-8"?>
<svg id="Artwork" xmlns="http://www.w3.org/2000/svg" xmlns:xlink="http://www.w3.org/1999/xlink" viewBox="0 0 110.74 35.02">
  <defs>
    <style>
      .cls-1 {
        fill: url(#linear-gradient);
      }

      .cls-1, .cls-2, .cls-3, .cls-4, .cls-5, .cls-6 {
        stroke-width: 0px;
      }

      .cls-3 {
        fill: #34a853;
      }

      .cls-4 {
        fill: #fff;
      }

      .cls-5 {
        fill: #fbbc04;
      }

      .cls-6 {
        fill: #ea4335;
      }
    </style>
    <linearGradient id="linear-gradient" x1="17.69" y1="15.22" x2="6.56" y2="2.18" gradientTransform="translate(0 35.89) scale(1 -1)" gradientUnits="userSpaceOnUse">
      <stop offset="0" stop-color="#4285f4"/>
      <stop offset="1" stop-color="#1b74e8"/>
    </linearGradient>
  </defs>
  <rect class="cls-2" x="0" y="0" width="110.74" height="35.02" rx="17.51" ry="17.51"/>
  <g>
    <path class="cls-3" d="m29.53,14.48H7.87v-3.4c0-1.84,1.59-3.4,3.48-3.4h14.7c1.89,0,3.48,1.55,3.48,3.4v3.4Z"/>
    <path class="cls-5" d="m29.53,17.62H7.87v-3.61c0-1.96,1.59-3.61,3.48-3.61h14.7c1.89,0,3.48,1.65,3.48,3.61v3.61Z"/>
    <path class="cls-6" d="m29.53,20.63H7.87v-3.61c0-1.96,1.59-3.61,3.48-3.61h14.7c1.89,0,3.48,1.65,3.48,3.61v3.61Z"/>
    <path class="cls-1" d="m7.87,15.36l13.75,3.11c1.58.39,3.36,0,4.65-.97l3.26-2.33v7.28c0,1.84-1.58,3.3-3.46,3.3h-14.74c-1.88,0-3.46-1.46-3.46-3.3v-7.08Z"/>
    <path class="cls-4" d="m36.87,13.11l2.11-5.6h.98l2.12,5.6h-.95l-.52-1.44h-2.28l-.52,1.44h-.95Zm2.37-3.95l-.62,1.71h1.7l-.62-1.71-.21-.64h-.05l-.21.64Zm5.04,4.07c-.36,0-.69-.09-.98-.27-.29-.18-.52-.43-.69-.75-.17-.32-.25-.69-.25-1.1s.08-.78.25-1.09c.17-.32.4-.57.69-.75.29-.18.62-.27.98-.27.31,0,.57.07.79.2.22.14.39.29.49.46h.05l-.05-.56v-1.6h.84v5.6h-.79v-.53h-.05c-.1.17-.27.33-.49.46-.22.13-.48.2-.79.2Zm.13-.77c.21,0,.4-.05.59-.16.19-.11.34-.26.45-.46.11-.2.17-.44.17-.72s-.06-.51-.17-.71c-.11-.2-.26-.36-.45-.47-.18-.11-.38-.16-.59-.16s-.4.05-.59.16c-.18.11-.33.27-.45.47-.11.2-.17.44-.17.71s.06.52.17.72c.11.2.26.35.45.46.18.11.38.16.59.16Zm4.66.77c-.36,0-.69-.09-.98-.27-.29-.18-.52-.43-.69-.75-.17-.32-.25-.69-.25-1.1s.08-.78.25-1.09c.17-.32.4-.57.69-.75.29-.18.62-.27.98-.27.31,0,.57.07.79.2.22.14.39.29.49.46h.05l-.05-.56v-1.6h.84v5.6h-.79v-.53h-.05c-.1.17-.27.33-.49.46-.22.13-.48.2-.79.2Zm.13-.77c.21,0,.4-.05.59-.16.19-.11.34-.26.45-.46.11-.2.17-.44.17-.72s-.06-.51-.17-.71c-.11-.2-.26-.36-.45-.47-.18-.11-.38-.16-.59-.16s-.4.05-.59.16c-.18.11-.33.27-.45.47-.11.2-.17.44-.17.71s.06.52.17.72c.11.2.26.35.45.46.18.11.38.16.59.16Zm5.24-.51v-2.1h-.7v-.74h.7v-1.13h.84v1.13h.98v.74h-.98v1.92c0,.2.04.35.12.45.08.1.22.16.41.16.1,0,.18-.01.25-.04.07-.03.15-.06.22-.11v.82c-.09.04-.18.07-.28.09-.1.02-.22.03-.35.03-.37,0-.67-.11-.88-.32-.22-.22-.33-.52-.33-.9Zm4.36,1.28c-.41,0-.77-.09-1.09-.28-.31-.19-.56-.44-.74-.76-.18-.32-.27-.68-.27-1.08s.09-.75.27-1.07c.18-.32.42-.58.74-.77.31-.19.68-.28,1.09-.28s.77.09,1.08.28c.31.19.56.44.74.77.18.32.27.68.27,1.07s-.09.76-.27,1.08c-.18.32-.42.57-.74.76-.31.19-.67.28-1.08.28Zm0-.77c.22,0,.42-.05.61-.16.19-.11.34-.26.45-.46.12-.2.18-.45.18-.73s-.06-.52-.18-.72c-.11-.2-.27-.36-.45-.46-.19-.11-.39-.16-.61-.16s-.43.05-.62.16c-.19.1-.34.26-.46.46-.11.2-.17.44-.17.72s.06.52.17.73c.12.2.27.35.46.46.19.1.4.16.62.16Z"/>
    <path class="cls-4" d="m41.05,25.3c-.53,0-1.02-.1-1.48-.29-.46-.19-.86-.46-1.22-.8-.35-.35-.63-.75-.84-1.22-.2-.47-.3-.98-.3-1.52s.1-1.05.3-1.51c.2-.47.48-.88.83-1.22.35-.35.76-.62,1.23-.81.46-.19.96-.29,1.48-.29.56,0,1.07.1,1.54.3.48.2.88.47,1.2.83l-.78.77c-.24-.27-.53-.47-.86-.61-.33-.14-.7-.21-1.1-.21-.48,0-.93.12-1.34.35-.41.23-.74.55-.99.96-.25.41-.37.89-.37,1.45s.13,1.05.38,1.46c.25.41.58.73.99.96.41.23.86.34,1.34.34.44,0,.85-.08,1.21-.25.36-.17.65-.41.87-.72.23-.31.36-.68.41-1.1h-2.51v-.99h3.56c.04.18.06.38.06.58h0c0,.72-.16,1.34-.47,1.87-.31.53-.73.93-1.28,1.23s-1.17.44-1.86.44Zm6.9,0c-.54,0-1.01-.12-1.42-.37s-.73-.58-.96-.99c-.23-.42-.35-.89-.35-1.41s.12-.99.35-1.4c.23-.42.55-.76.96-1,.41-.25.88-.37,1.42-.37s1,.12,1.41.37c.41.25.73.58.96,1,.23.42.35.88.35,1.4s-.12,1-.35,1.41c-.23.42-.55.75-.96.99s-.88.37-1.41.37Zm0-1.01c.29,0,.55-.07.8-.2.25-.14.44-.34.59-.6.16-.27.24-.58.24-.95s-.08-.68-.24-.94c-.15-.27-.35-.47-.59-.6-.25-.14-.51-.21-.8-.21s-.56.07-.81.21c-.25.14-.45.34-.6.6-.15.26-.23.57-.23.94s.07.69.23.95c.16.26.36.46.6.6.25.14.52.2.81.2Zm6.19,1.01c-.54,0-1.01-.12-1.42-.37s-.73-.58-.96-.99c-.23-.42-.35-.89-.35-1.41s.12-.99.35-1.4c.23-.42.55-.76.96-1,.41-.25.88-.37,1.42-.37s1,.12,1.41.37c.41.25.73.58.96,1,.23.42.35.88.35,1.4s-.12,1-.35,1.41c-.23.42-.55.75-.96.99-.41.25-.88.37-1.41.37Zm0-1.01c.29,0,.55-.07.8-.2.25-.14.44-.34.59-.6.16-.27.24-.58.24-.95s-.08-.68-.24-.94c-.15-.27-.35-.47-.59-.6-.25-.14-.51-.21-.8-.21s-.56.07-.81.21c-.25.14-.45.34-.6.6-.15.26-.23.57-.23.94s.08.69.23.95c.16.26.36.46.6.6.25.14.52.2.81.2Zm6.09,3.22c-.46,0-.85-.08-1.19-.23-.33-.14-.59-.33-.8-.56-.2-.23-.35-.46-.44-.7l1.02-.43c.11.27.28.49.52.66.25.18.54.27.88.27.48,0,.85-.14,1.13-.43.28-.29.42-.69.42-1.22v-.5h-.06c-.16.25-.39.44-.69.59-.29.14-.61.21-.98.21-.44,0-.85-.11-1.22-.34-.37-.23-.66-.54-.89-.94-.23-.41-.34-.89-.34-1.43s.11-1.03.34-1.43c.23-.41.52-.73.89-.95.37-.23.77-.34,1.22-.34.37,0,.7.08.98.23.29.15.52.35.69.59h.06v-.65h1.05v4.94c0,.57-.11,1.05-.34,1.44-.22.4-.52.7-.91.9-.39.2-.84.31-1.35.31Zm.01-3.32c.27,0,.52-.06.76-.19.23-.14.42-.33.56-.58.14-.26.21-.57.21-.93s-.07-.69-.21-.94c-.14-.26-.33-.45-.56-.58-.23-.13-.48-.19-.76-.19s-.53.07-.77.2c-.23.13-.42.32-.56.57s-.21.57-.21.94.07.68.21.94c.14.25.33.44.56.57.24.13.49.19.77.19Zm3.89.95v-7.32h1.1v7.32h-1.1Zm4.74.16c-.51,0-.97-.12-1.37-.36-.4-.24-.72-.57-.95-.98-.23-.42-.34-.89-.34-1.42,0-.5.11-.96.33-1.38.22-.42.52-.76.91-1.01.4-.26.85-.39,1.36-.39.54,0,1,.12,1.37.35.38.23.67.55.87.95.2.4.3.86.3,1.36,0,.08,0,.14-.01.2,0,.06,0,.11-.01.14h-4.03c.05.52.24.91.54,1.17.31.26.67.39,1.06.39.35,0,.65-.08.88-.24.23-.16.42-.36.55-.6l.91.44c-.23.41-.53.74-.92,1-.39.25-.87.38-1.45.38Zm-.05-4.6c-.37,0-.68.11-.94.34-.26.23-.43.53-.52.9h2.89c-.01-.18-.07-.36-.17-.55-.1-.19-.26-.35-.47-.48-.2-.14-.47-.2-.79-.2Zm7.02,4.44l-1.96-7.32h1.25l1.17,4.76.12.63h.06l.15-.63,1.47-4.76h1.13l1.41,4.76.15.62h.06l.12-.62,1.17-4.76h1.24l-1.93,7.32h-1.19l-1.4-4.86-.16-.69h-.06l-.17.69-1.46,4.86h-1.16Zm9.59.16c-.37,0-.71-.07-1-.21-.29-.15-.52-.36-.69-.62-.16-.27-.25-.57-.25-.91,0-.37.1-.68.29-.94.2-.27.46-.47.79-.6.33-.14.69-.2,1.08-.2.33,0,.61.03.86.09.25.06.44.13.57.19v-.28c0-.34-.12-.61-.37-.82-.25-.2-.56-.31-.95-.31-.27,0-.52.06-.76.18-.24.12-.43.28-.57.48l-.76-.58c.23-.31.52-.56.89-.74.37-.18.78-.28,1.23-.28.76,0,1.34.19,1.75.56.41.37.61.89.61,1.55v3.26h-1.07v-.64h-.06c-.14.21-.34.4-.61.56-.27.16-.6.25-.98.25Zm.19-.9c.29,0,.54-.07.76-.2.22-.14.39-.31.51-.53.13-.23.19-.47.19-.73-.16-.09-.34-.16-.55-.21-.21-.06-.44-.09-.68-.09-.45,0-.77.09-.96.28-.19.18-.29.4-.29.65,0,.25.09.45.28.6s.43.24.74.24Zm3.76.74v-7.32h1.1v7.32h-1.1Zm2.42,0v-7.32h1.1v7.32h-1.1Zm4.74.16c-.51,0-.97-.12-1.37-.36-.4-.24-.72-.57-.95-.98-.23-.42-.34-.89-.34-1.42,0-.5.11-.96.33-1.38.22-.42.52-.76.91-1.01.4-.26.85-.39,1.36-.39.54,0,1,.12,1.37.35.38.23.67.55.87.95.2.4.3.86.3,1.36,0,.08,0,.14-.01.2,0,.06,0,.11-.01.14h-4.03c.05.52.24.91.54,1.17.31.26.67.39,1.06.39.35,0,.65-.08.88-.24.23-.16.42-.36.55-.6l.91.44c-.23.41-.53.74-.92,1-.39.25-.87.38-1.45.38Zm-.05-4.6c-.37,0-.68.11-.94.34-.26.23-.43.53-.52.9h2.89c-.01-.18-.07-.36-.17-.55-.1-.19-.26-.35-.47-.48-.2-.14-.47-.2-.79-.2Zm3.95,2.93v-2.74h-.91v-.96h.91v-1.47h1.1v1.47h1.28v.96h-1.28v2.51c0,.26.05.46.15.59.11.14.29.2.54.2.13,0,.24-.02.33-.05.1-.03.19-.08.29-.14v1.07c-.12.05-.24.09-.37.11-.13.03-.28.04-.46.04-.48,0-.87-.14-1.16-.42-.29-.29-.43-.68-.43-1.18Z"/>
  </g>
</svg>